<svg xmlns="http://www.w3.org/2000/svg" viewBox="0 0 24 24" fill="currentColor" aria-hidden="true" width="24"><path d="M6.995 12a5.013 5.013 0 005.007 5.007A5.013 5.013 0 0017.009 12a5.013 5.013 0 00-5.007-5.007A5.013 5.013 0 006.995 12zM11 19.5a.5.5 0 01.5-.5h1a.5.5 0 01.5.5v2a.5.5 0 01-.5.5h-1a.5.5 0 01-.5-.5v-2zm0-17a.5.5 0 01.5-.5h1a.5.5 0 01.5.5v2a.5.5 0 01-.5.5h-1a.5.5 0 01-.5-.5v-2zm-9 9a.5.5 0 01.5-.5h2a.5.5 0 01.5.5v1a.5.5 0 01-.5.5h-2a.5.5 0 01-.5-.5v-1zm17 0a.5.5 0 01.5-.5h2a.5.5 0 01.5.5v1a.5.5 0 01-.5.5h-2a.5.5 0 01-.5-.5v-1zM5.99 19.424a.5.5 0 01-.707 0l-.706-.706a.5.5 0 010-.708l1.413-1.413a.5.5 0 01.708 0l.706.706a.5.5 0 010 .708l-1.413 1.413zM16.597 6.698a.5.5 0 010-.708l1.414-1.414a.5.5 0 01.708 0l.706.706a.5.5 0 010 .708L18.01 7.404a.5.5 0 01-.708 0l-.706-.706zm-9.898.707a.5.5 0 01-.708 0L4.577 5.991a.5.5 0 010-.707l.707-.708a.5.5 0 01.707 0l1.414 1.415a.5.5 0 010 .707l-.707.707zM19.424 18.01a.5.5 0 010 .708l-.706.706a.5.5 0 01-.708 0l-1.414-1.414a.5.5 0 010-.708l.706-.706a.5.5 0 01.708 0l1.414 1.414z"></path></svg>
